<svg xmlns="http://www.w3.org/2000/svg" viewBox="0 0 24 24"><path d="M18.7 12.8c0-3 2.45-4.45 2.56-4.52a5.45 5.45 0 0 0-4.28-2.32c-1.8-.18-3.55 1.08-4.47 1.08-.94 0-2.36-1.06-3.9-1.03a5.72 5.72 0 0 0-4.82 2.94c-2.08 3.6-.53 8.9 1.46 11.8 1 1.42 2.17 3 3.7 2.94 1.5-.06 2.06-.95 3.87-.95 1.8 0 2.32.95 3.88.91 1.6-.02 2.61-1.42 3.57-2.86a11.75 11.75 0 0 0 1.63-3.32 5.13 5.13 0 0 1-3.2-4.67ZM15.8 4.05A5.25 5.25 0 0 0 17 .24a5.34 5.34 0 0 0-3.48 1.8 4.98 4.98 0 0 0-1.25 3.68 4.42 4.42 0 0 0 3.53-1.67Z"/></svg>
