<svg xmlns="http://www.w3.org/2000/svg" viewBox="0 0 24 24"><path d="M12 1.2c-2.6 0-4.2 2.15-4.2 5.24 0 1.05.2 1.93.48 2.77-.86.75-1.78 1.85-2.36 3.2-.7 1.63-.87 3.3-.5 4.61-.85.62-1.57 1.5-1.86 2.43-.22.68-.16 1.28.15 1.66.56.7 1.92.4 3.4-.63 1.32 1.48 3.02 2.32 4.89 2.32 1.88 0 3.58-.84 4.9-2.32 1.47 1.03 2.83 1.33 3.4.63.3-.38.36-.98.14-1.66-.29-.93-1-1.81-1.86-2.43.37-1.3.2-2.98-.5-4.61-.58-1.35-1.5-2.45-2.36-3.2.28-.84.48-1.72.48-2.77C16.2 3.35 14.6 1.2 12 1.2Zm-1.56 4.25c.58 0 1.04.55 1.04 1.23 0 .68-.46 1.22-1.04 1.22-.57 0-1.03-.54-1.03-1.22s.46-1.23 1.03-1.23Zm3.12 0c.57 0 1.03.55 1.03 1.23 0 .68-.46 1.22-1.03 1.22-.58 0-1.04-.54-1.04-1.22s.46-1.23 1.04-1.23ZM12 8.3c1 0 1.8.6 1.8 1.34 0 .73-.8 1.33-1.8 1.33s-1.8-.6-1.8-1.33c0-.74.8-1.34 1.8-1.34Z"/></svg>
